<svg width="26" height="20" viewBox="0 0 26 20" fill="none" xmlns="http://www.w3.org/2000/svg">
<path fill-rule="evenodd" clip-rule="evenodd" d="M17.8415 5.60483C17.8415 8.34613 15.6572 10.5442 12.9332 10.5442C10.2092 10.5442 8.02493 8.34613 8.02493 5.60483C8.02493 2.86248 10.2092 0.666504 12.9332 0.666504C15.6572 0.666504 17.8415 2.86248 17.8415 5.60483ZM12.9332 19.3332C8.93222 19.3332 5.51595 18.6985 5.51595 16.16C5.51595 13.6205 8.91029 12.9627 12.9332 12.9627C16.9341 12.9627 20.3504 13.5973 20.3504 16.1369C20.3504 18.6754 16.956 19.3332 12.9332 19.3332ZM19.939 5.69396C19.939 7.0914 19.5224 8.39323 18.7915 9.47546C18.7163 9.58683 18.7832 9.73708 18.9158 9.7602C19.0985 9.79172 19.2875 9.80958 19.4796 9.81483C21.3955 9.86527 23.1151 8.62438 23.5902 6.75622C24.2939 3.9813 22.2276 1.49008 19.5965 1.49008C19.3104 1.49008 19.0369 1.52055 18.7706 1.57518C18.7341 1.58359 18.6955 1.6004 18.6746 1.63297C18.6495 1.6729 18.6683 1.72648 18.6934 1.76116C19.4837 2.87596 19.939 4.23557 19.939 5.69396ZM23.112 11.7645C24.3993 12.0177 25.2461 12.5347 25.5969 13.2859C25.8934 13.9027 25.8934 14.6182 25.5969 15.2339C25.0602 16.3992 23.3302 16.7732 22.6578 16.8699C22.5189 16.8909 22.4072 16.7701 22.4218 16.6303C22.7653 13.4015 20.0329 11.8706 19.3261 11.5186C19.2958 11.5029 19.2895 11.4787 19.2927 11.464C19.2948 11.4535 19.3073 11.4367 19.3303 11.4335C20.8598 11.4051 22.5043 11.6153 23.112 11.7645ZM6.506 9.81466C6.69812 9.80941 6.88605 9.7926 7.06981 9.76003C7.20241 9.73691 7.26923 9.58666 7.19406 9.47528C6.4632 8.39305 6.04661 7.09123 6.04661 5.69379C6.04661 4.2354 6.50183 2.87579 7.2922 1.76099C7.31726 1.72631 7.33501 1.67273 7.311 1.6328C7.29012 1.60128 7.25044 1.58342 7.21494 1.57501C6.94765 1.52037 6.6741 1.4899 6.38802 1.4899C3.75692 1.4899 1.69066 3.98113 2.39542 6.75605C2.87048 8.62421 4.5901 9.8651 6.506 9.81466ZM6.69236 11.4634C6.69549 11.4791 6.68923 11.5023 6.65999 11.5191C5.9521 11.871 3.21972 13.4019 3.56322 16.6297C3.57784 16.7705 3.46717 16.8903 3.3283 16.8703C2.65591 16.7737 0.925852 16.3996 0.38919 15.2344C0.0916242 14.6176 0.0916242 13.9031 0.38919 13.2864C0.740004 12.5351 1.58572 12.0181 2.87308 11.7639C3.48178 11.6157 5.12518 11.4056 6.65582 11.434C6.67879 11.4371 6.69027 11.4539 6.69236 11.4634Z" fill="#FFCF00"/>
</svg>
