<svg width="23" height="24" viewBox="0 0 23 24" fill="none" xmlns="http://www.w3.org/2000/svg">
<path fill-rule="evenodd" clip-rule="evenodd" d="M16.5065 5.54801H16.7453C19.8843 5.54801 22.4319 8.17301 22.4319 11.393V17.833C22.4319 21.053 19.8843 23.6663 16.7453 23.6663H5.96347C2.82446 23.6663 0.276855 21.053 0.276855 17.833V11.393C0.276855 8.17301 2.82446 5.54801 5.96347 5.54801H6.20231C6.22506 4.14801 6.7596 2.84134 7.72633 1.86134C8.70443 0.869674 9.95548 0.368008 11.3658 0.333008C14.1863 0.333008 16.4723 2.66634 16.5065 5.54801ZM8.92048 3.10967C8.28358 3.76301 7.93101 4.62634 7.90827 5.54801H14.8004C14.7663 3.63467 13.2423 2.08301 11.3657 2.08301C10.49 2.08301 9.58013 2.44467 8.92048 3.10967ZM15.6766 10.0397C16.1546 10.0397 16.5301 9.64303 16.5301 9.1647V7.81137C16.5301 7.33303 16.1546 6.93637 15.6766 6.93637C15.2101 6.93637 14.8004 7.33319 14.8004 7.81152V9.16486C14.8004 9.64319 15.2101 10.0397 15.6766 10.0397ZM6.93061 10.0397C7.40854 10.0397 7.78405 9.64303 7.78405 9.1647V7.81137C7.78405 7.33303 7.36336 6.93761 6.88544 6.93761C6.43794 6.96218 6.05443 7.3487 6.05443 7.81152V9.16486C6.05443 9.62826 6.4824 10.016 6.93061 10.0397Z" fill="#0985B9"/>
</svg>
