<svg width="24" height="24" viewBox="0 0 24 24" fill="none" xmlns="http://www.w3.org/2000/svg">
<path fill-rule="evenodd" clip-rule="evenodd" d="M17.2151 0.333984H6.32532C2.35956 0.333984 0.110229 2.58448 0.110229 6.55232V17.449C0.110229 21.4157 2.35956 23.6673 6.32532 23.6673H17.2151C21.1809 23.6673 23.4314 21.4157 23.4314 17.449V6.55232C23.4197 2.58448 21.1809 0.333984 17.2151 0.333984ZM7.36194 17.9624C7.3153 18.464 6.89669 18.8374 6.39411 18.8374C5.89271 18.8374 5.47293 18.464 5.42745 17.9624V9.90069C5.39247 9.53785 5.56621 9.17735 5.88221 8.97902C6.19588 8.78069 6.59351 8.78069 6.90835 8.97902C7.22202 9.17735 7.39809 9.53785 7.36194 9.90069V17.9624ZM18.1961 17.9623C18.1366 18.464 17.718 18.8373 17.2283 18.8373C16.7257 18.8373 16.3071 18.464 16.2604 17.9623V14.1357C16.2138 13.7612 16.3875 13.4123 16.7035 13.214C17.03 13.0157 17.4265 13.0157 17.7402 13.214C18.0562 13.4123 18.2299 13.7612 18.1961 14.1357V17.9623ZM13 18C12.9405 18.5017 12.5219 18.8373 12.0322 18.8373C11.5296 18.8373 11.111 18.5017 11.0643 18V6.074C11.0177 5.6995 11.1914 5.35067 11.5074 5.15233C11.8339 4.954 12.2304 4.954 12.5441 5.15233C12.8601 5.35067 13.0338 5.6995 13 6.074V18Z" fill="#FEAD86"/>
</svg>
