<svg width="25" height="24" viewBox="0 0 25 24" fill="none" xmlns="http://www.w3.org/2000/svg">
<path d="M13.5262 5.485C14.0861 5.485 14.541 5.94 14.541 6.5C14.541 7.07283 14.0861 7.52667 13.5262 7.52667C12.9662 7.52667 12.4996 7.07283 12.4996 6.5C12.4996 5.94 12.9662 5.485 13.5262 5.485Z" fill="#51A690"/>
<path fill-rule="evenodd" clip-rule="evenodd" d="M23.1963 9.51026L22.3564 8.67026C22.0298 8.34359 21.8432 7.90026 21.8432 7.43476V6.23193C21.8432 4.29526 20.2684 2.72143 18.3321 2.72143H17.1306C16.664 2.72143 16.2207 2.53359 15.8941 2.20693L15.0426 1.35643C13.6661 -0.00857437 11.4381 -0.00857437 10.0734 1.36693L9.23349 2.20693C8.90687 2.53359 8.46361 2.72143 7.99701 2.72143H6.79554C4.85917 2.72143 3.28442 4.29526 3.28442 6.23193V7.42193C3.28442 7.90026 3.09778 8.34359 2.77117 8.67026L1.91963 9.52309C0.554845 10.8986 0.56651 13.1281 1.9313 14.4919L2.77117 15.3203C3.09778 15.6586 3.28442 16.1019 3.28442 16.5698V17.7703C3.28442 19.7069 4.85917 21.2831 6.79554 21.2831H7.99701C8.46361 21.2831 8.90687 21.4686 9.23349 21.7953L10.085 22.6481C10.7732 23.3248 11.6714 23.6619 12.5696 23.6619C13.4678 23.6619 14.366 23.3248 15.0542 22.6353L15.8941 21.7953C16.2207 21.4686 16.664 21.2831 17.1306 21.2831H18.3321C20.2684 21.2831 21.8432 19.7069 21.8432 17.7703V16.5698C21.8432 16.1019 22.0298 15.6586 22.3564 15.3319L23.1846 14.5036L23.1963 14.4922L23.2061 14.4826C23.2106 14.4782 23.2151 14.4736 23.2196 14.4686C23.8729 13.8048 24.2345 12.9169 24.2228 11.9836C24.2228 11.0503 23.8612 10.1636 23.1963 9.51026ZM10.2834 15.7169C10.0967 15.9153 9.84009 16.0203 9.56013 16.0203C9.29184 16.0203 9.03521 15.9153 8.84858 15.7169C8.45197 15.3203 8.45197 14.6669 8.84858 14.2703L14.8443 8.27362C15.2409 7.87812 15.8825 7.87812 16.2791 8.27362C16.6757 8.67028 16.6757 9.32478 16.2791 9.72145L10.2834 15.7169ZM15.5675 16.0202C14.9959 16.0202 14.541 15.5652 14.541 14.9936C14.541 14.4347 14.9959 13.9786 15.5675 13.9786C16.1274 13.9786 16.5823 14.4347 16.5823 14.9936C16.5823 15.5652 16.1274 16.0202 15.5675 16.0202ZM14.541 6.5C14.541 5.94 14.0861 5.485 13.5262 5.485C12.9662 5.485 12.4996 5.94 12.4996 6.5C12.4996 7.07283 12.9662 7.52667 13.5262 7.52667C14.0861 7.52667 14.541 7.07283 14.541 6.5ZM9.52651 10.0267C8.95493 10.0267 8.5 9.57167 8.5 9C8.5 8.44117 8.95493 7.985 9.52651 7.985C10.0864 7.985 10.5413 8.44117 10.5413 9C10.5413 9.57167 10.0864 10.0267 9.52651 10.0267Z" fill="#51A690"/>
</svg>
