<svg width="19" height="20" viewBox="0 0 19 20" fill="none" xmlns="http://www.w3.org/2000/svg">
<path fill-rule="evenodd" clip-rule="evenodd" d="M5.307 0H13.6836C16.771 0 18.4901 1.78 18.4901 4.83V15.16C18.4901 18.26 16.771 20 13.6836 20H5.307C2.26859 20 0.499512 18.26 0.499512 15.16V4.83C0.499512 1.78 2.26859 0 5.307 0ZM5.57681 4.66006V4.65006H8.56425C8.99503 4.65006 9.34485 5.00006 9.34485 5.42906C9.34485 5.87006 8.99503 6.22006 8.56425 6.22006H5.57681C5.14604 6.22006 4.79722 5.87006 4.79722 5.44006C4.79722 5.01006 5.14604 4.66006 5.57681 4.66006ZM5.57681 10.7401H13.4127C13.8425 10.7401 14.1923 10.3901 14.1923 9.9601C14.1923 9.5301 13.8425 9.1791 13.4127 9.1791H5.57681C5.14604 9.1791 4.79722 9.5301 4.79722 9.9601C4.79722 10.3901 5.14604 10.7401 5.57681 10.7401ZM5.57684 15.31H13.4127C13.8115 15.27 14.1124 14.929 14.1124 14.53C14.1124 14.12 13.8115 13.78 13.4127 13.74H5.57684C5.27699 13.71 4.98714 13.85 4.82723 14.11C4.66731 14.36 4.66731 14.69 4.82723 14.95C4.98714 15.2 5.27699 15.35 5.57684 15.31Z" fill="#4DBCFE"/>
</svg>
