<svg width="21" height="20" viewBox="0 0 21 20" fill="none" xmlns="http://www.w3.org/2000/svg">
<path fill-rule="evenodd" clip-rule="evenodd" d="M11.9436 2.88017H15.012C18.7001 2.88017 20.4991 4.85017 20.4891 8.89017V13.7602C20.4891 17.6202 18.1104 20.0002 14.2424 20.0002H6.73627C2.88827 20.0002 0.499512 17.6202 0.499512 13.7502V6.24017C0.499512 2.10017 2.33856 0.00017066 5.96667 0.00017066H7.54585C8.47637 -0.00982934 9.34492 0.420171 9.91463 1.15017L10.7942 2.32017C11.074 2.67017 11.4938 2.88017 11.9436 2.88017ZM5.86677 13.2902H15.122C15.5318 13.2902 15.8616 12.9502 15.8616 12.5402C15.8616 12.1202 15.5318 11.7902 15.122 11.7902H5.86677C5.44699 11.7902 5.11716 12.1202 5.11716 12.5402C5.11716 12.9502 5.44699 13.2902 5.86677 13.2902Z" fill="#8E7EFC"/>
</svg>
