<svg width="93" height="53" viewBox="0 0 93 53" fill="none" xmlns="http://www.w3.org/2000/svg">
<path d="M34.1774 20.2733C30.7019 18.2667 29.4565 13.7511 31.4873 10.2337C33.4939 6.75812 38.0095 5.51277 41.527 7.54356C45.0025 9.55018 46.2479 14.0658 44.2171 17.5832C42.1863 21.1006 37.6949 22.3041 34.1774 20.2733Z" fill="white"/>
<path d="M89.2671 32.6095C95.0935 22.5178 91.5893 9.43988 81.4976 3.61345C71.3641 -2.23717 58.328 1.29124 52.5015 11.3829L36.9805 38.2662C36.9805 38.2662 76.1153 55.3891 89.2671 32.6095Z" fill="white"/>
<path d="M2.39786 30.1126C-1.66372 37.1474 0.736747 46.2382 7.77161 50.2998C14.8065 54.3614 23.8554 51.9367 27.917 44.9019L38.7237 26.1841C38.7655 26.2083 11.5364 14.2841 2.39786 30.1126ZM13.2112 40.8781C11.3688 39.8143 10.7316 37.4365 11.7954 35.5941C12.8591 33.7516 15.2369 33.1145 17.0794 34.1782C18.9219 35.242 19.559 37.6198 18.4953 39.4622C17.4734 41.3289 15.0956 41.966 13.2112 40.8781Z" fill="white"/>
</svg>
